<svg xmlns="http://www.w3.org/2000/svg" width="311" height="295" fill="none" xmlns:v="https://vecta.io/nano"><g stroke="#004ea3"><g stroke-miterlimit="10"><path d="M142.775 251.8v16.03c0 8.14-5.97 14.73-13.33 14.73h-21.94m150.85-30.76v16.03c0 8.14 5.97 14.73 13.33 14.73h11.94c7.36 0 13.33-6.6 13.33-14.73V230.6" stroke-width="7.714"/><path d="M173.455 174.15h107.23c8.95 0 16.28 8.09 16.28 17.99v42.28c0 9.89-7.32 17.99-16.28 17.99h-154.6" stroke-width="7.927"/><path d="M197.315 117.48h57.22s12.1 2.08 16.24 14.41l14.97 44.97m17.97-20.71h-16.56c-1.57 0-2.86 1.29-2.86 2.86v12.92c0 1.57 1.29 2.86 2.86 2.86h16.56c1.57 0 2.86-1.29 2.86-2.86v-12.92c-.01-1.58-1.29-2.86-2.86-2.86z" stroke-width="7.714"/><path d="M270.375 224.36h-21.57c-4.01 0-7.28-3.28-7.28-7.28v-3.73c0-4.01 3.28-7.28 7.28-7.28h21.57c4.01 0 7.28 3.28 7.28 7.28v3.73a7.31 7.31 0 0 1-7.28 7.28z" stroke-width="7.305"/><path d="M219.225 173.73c0-12.23 8.97-22.15 20.04-22.15s20.04 9.92 20.04 22.15" stroke-width="7.927"/><path d="M167.705 207.65h53.53m-53.53 14.89h53.53" stroke-width="8.706" stroke-linecap="round"/></g><g stroke-miterlimit="10" stroke-width="7.653"><path d="M99.925 288.26s-84.8-107.73-94.46-167.84C-4.275 59.8 35.335 4 101.265 4c63.26 0 105.16 60.11 92.69 114.14-12.19 52.82-65.78 135.83-94.03 170.12z" fill="#fff"/><path d="M100.085 167.3c37.351 0 67.63-30.279 67.63-67.63s-30.279-67.63-67.63-67.63-67.63 30.279-67.63 67.63 30.279 67.63 67.63 67.63z"/></g></g><g fill-rule="evenodd"><path d="M142.155 60.03l-47.17 47.21v46.41l47.29-93.67" fill="#001489"/><path d="M142.095 59.98l-93.49 47.26h46.26l47.23-47.26z" fill="#ffbf3f"/><path d="M95.205 83.77l-.22 23.47 47.29-47.26-47.07 23.79z" fill="#e1a21d"/><path d="M118.355 107.24l23.86-47.26-.11.06-47.12 47.21h23.37v-.01z" fill="#0077c8"/></g></svg>