<svg xmlns="http://www.w3.org/2000/svg" width="322" height="273" fill="none" xmlns:v="https://vecta.io/nano"><g fill-rule="evenodd"><path d="M92.4 177.84l-35.95 35.98v35.37l36.04-71.39" fill="#001489"/><path d="M92.35 177.8l-71.26 36.02h35.26l36-36.02z" fill="#ffbf3f"/><path d="M56.61 195.94l-.17 17.89 36.04-36.02-35.87 18.13z" fill="#e1a21d"/><path d="M74.26 213.82l18.18-36.02-.09.04-35.91 35.98h17.82z" fill="#0077c8"/></g><g stroke="#004ea3" stroke-miterlimit="10" stroke-width="7"><path d="M181.92 112.56h131.85c2.5 0 4.53 2.03 4.53 4.53v144.44c0 2.5-2.03 4.53-4.53 4.53H75.92"/><path d="M256.98 171.42c10.548 0 19.1-8.551 19.1-19.1s-8.552-19.1-19.1-19.1-19.1 8.551-19.1 19.1 8.551 19.1 19.1 19.1z"/><path d="M277.74 171.42c10.549 0 19.1-8.551 19.1-19.1s-8.551-19.1-19.1-19.1-19.1 8.551-19.1 19.1 8.551 19.1 19.1 19.1z"/></g><path d="M294.97 189.32h-53.75v4.31h53.75v-4.31zm0 20.24h-33.75v4.31h33.75v-4.31zm0 20.24h-28.22v4.31h28.22v-4.31z" fill="#004ea3"/><g stroke="#004ea3" stroke-miterlimit="10" stroke-width="7"><path d="M108.83 126.28l-65.7-65.37H25.22L7.63 32.38 35.01 5l28.36 18.42.34 20.24 67.35 61.38m-25 81.24c3.62 5.61 5.25 9.92 6.64 16.69a55.27 55.27 0 0 1 1.12 11.07c0 30.33-24.59 54.91-54.91 54.91C28.58 268.95 4 244.36 4 214.04c0-30.33 24.59-54.91 54.91-54.91 5.46 0 10.29 0 15.71 2.28"/><path d="M186.03 104.66c6.56 3.25 13.96 5.07 21.77 5.07 27.16 0 49.18-22.02 49.18-49.18 0-5.4-.88-10.6-2.49-15.46l-33.51 33.07h-29.86V42.99l34.65-28.22a48.95 48.95 0 0 0-17.96-3.4c-27.16 0-49.18 22.02-49.18 49.18 0 6.31 1.19 12.35 3.36 17.89M70.98 162.3l89.69-87.67"/><path d="M189.85 105.81l-85.57 84.56m114.04 46.73l-51.76-51.76h-28.54v-27.22m21.65-22.48l29.18 3.91-2.05 31.52 51.09 49.06m-81.33-33.79l-8.93 8.27 64.38 61.71s19.25 20.61 44.63-5.3c26.31-26.87-3.49-50.11-3.49-50.11l-57.41-51.59-7.62 8.77"/></g></svg>